<?xml version="1.0" encoding="utf-8"?>
<!-- Generator: Adobe Illustrator 24.3.0, SVG Export Plug-In . SVG Version: 6.00 Build 0)  -->
<svg version="1.1" id="_x31_" xmlns="http://www.w3.org/2000/svg" xmlns:xlink="http://www.w3.org/1999/xlink" x="0px" y="0px"
	 width="1200px" height="1200px" viewBox="0 0 1200 1200" enable-background="new 0 0 1200 1200" xml:space="preserve">
<g>
	<path d="M207.79,826.737c9.804-4.128,18.181-9.846,24.897-16.995c6.712-7.14,11.903-15.645,15.43-25.278
		c3.516-9.61,5.299-19.954,5.299-30.743c0-10.786-1.783-21.129-5.299-30.743c-3.527-9.632-8.719-18.136-15.43-25.279
		c-6.723-7.152-15.1-12.869-24.897-16.995c-9.792-4.122-21.013-6.213-33.35-6.213h-53.58V832.95h53.58
		C186.777,832.95,197.998,830.859,207.79,826.737z M154.375,705.975h20.065c8.04,0,15.01,1.28,20.716,3.806
		c5.693,2.523,10.426,5.936,14.068,10.143c3.649,4.219,6.364,9.284,8.072,15.054c1.728,5.845,2.604,12.152,2.604,18.744
		c0,6.596-0.876,12.902-2.604,18.742c-1.707,5.772-4.422,10.838-8.072,15.054c-3.641,4.209-8.373,7.621-14.068,10.143
		c-5.699,2.526-12.669,3.806-20.716,3.806h-20.065V705.975z"/>
	<path d="M299.535,810.624c6.717,7.235,15.093,13.038,24.893,17.25c9.789,4.21,21.014,6.345,33.36,6.345
		c12.346,0,23.57-2.135,33.359-6.345c9.801-4.211,18.176-10.015,24.893-17.25c6.709-7.225,11.899-15.814,15.425-25.53
		c3.515-9.69,5.297-20.245,5.297-31.372c0-10.955-1.781-21.466-5.296-31.243c-3.526-9.801-8.716-18.435-15.426-25.661
		c-6.712-7.229-15.088-13.032-24.893-17.25c-9.8-4.21-21.024-6.345-33.359-6.345c-12.336,0-23.56,2.135-33.36,6.345
		c-9.806,4.217-18.18,10.021-24.893,17.25c-6.717,7.233-11.907,15.867-15.426,25.661c-3.514,9.767-5.296,20.278-5.296,31.243
		c0,11.138,1.782,21.693,5.297,31.372C287.629,794.801,292.819,803.391,299.535,810.624z M314.935,734.459
		c1.711-5.946,4.432-11.185,8.087-15.572c3.641-4.367,8.367-7.859,14.05-10.376c5.703-2.526,12.673-3.806,20.717-3.806
		c8.04,0,15.01,1.28,20.715,3.806c5.686,2.52,10.413,6.011,14.05,10.374c3.655,4.388,6.377,9.627,8.087,15.573
		c1.73,6.016,2.608,12.496,2.608,19.262c0,6.767-0.878,13.248-2.608,19.261c-1.71,5.946-4.43,11.185-8.087,15.572
		c-3.641,4.369-8.367,7.86-14.05,10.377c-5.701,2.525-12.671,3.805-20.716,3.805c-8.049,0-15.019-1.28-20.717-3.805
		c-5.679-2.514-10.406-6.005-14.05-10.377c-3.656-4.387-6.377-9.626-8.087-15.572c-1.73-6.014-2.607-12.493-2.607-19.261
		C312.328,746.957,313.205,740.477,314.935,734.459z"/>
	<path d="M565.448,674.631c-7.66-0.936-15.582-1.409-23.547-1.409c-12.673,0-24.108,2.134-33.99,6.344
		c-9.889,4.214-18.309,10.019-25.025,17.251c-6.717,7.233-11.907,15.867-15.426,25.661c-3.514,9.767-5.296,20.364-5.296,31.497
		c0,11.132,1.782,21.729,5.296,31.496c3.52,9.795,8.71,18.428,15.426,25.661c6.72,7.238,15.14,13.043,25.025,17.251
		c9.871,4.21,21.307,6.344,33.99,6.344c7.961,0,15.884-0.474,23.547-1.408c7.671-0.936,14.761-2.363,21.074-4.243l1.087-0.322
		v-34.794l-2.182,1.054c-4.751,2.294-11.019,4.087-18.631,5.328c-7.669,1.25-15.532,1.885-23.372,1.885
		c-9.073,0-16.787-1.244-22.926-3.701c-6.088-2.434-11.014-5.836-14.643-10.111c-3.644-4.289-6.273-9.428-7.815-15.276
		c-1.567-5.928-2.362-12.461-2.362-19.418c0-6.785,0.794-13.19,2.36-19.035c1.541-5.76,4.171-10.858,7.816-15.153
		c3.635-4.277,8.561-7.679,14.643-10.111c6.139-2.456,13.852-3.701,22.926-3.701c7.833,0,15.697,0.634,23.372,1.886
		c7.602,1.24,13.87,3.032,18.631,5.327l2.182,1.053v-34.792l-1.087-0.324C580.206,676.995,573.116,675.57,565.448,674.631z"/>
	<path d="M761.966,787.422c4.115-10.373,6.201-21.711,6.201-33.701c0-10.953-1.782-21.466-5.294-31.243
		c-3.527-9.801-8.717-18.433-15.428-25.661c-6.714-7.229-15.089-13.032-24.893-17.25c-9.8-4.21-21.023-6.345-33.359-6.345
		s-23.56,2.135-33.361,6.345c-9.804,4.217-18.18,10.021-24.892,17.25c-6.718,7.235-11.908,15.869-15.428,25.661
		c-3.514,9.768-5.296,20.279-5.296,31.243c0,11.136,1.782,21.692,5.297,31.372c3.519,9.706,8.708,18.297,15.426,25.53
		c6.717,7.235,15.092,13.04,24.892,17.25c9.791,4.21,21.014,6.345,33.361,6.345c10.045,0,19.431-1.448,27.923-4.304l22.641,28.429
		h41.757l-36.429-45.079C752.344,806.059,758.02,797.371,761.966,787.422z M731.802,773.453c-1.677,5.321-4.13,10.077-7.305,14.166
		l-17.055-21.197h-40.954l28.67,36.093c-0.486,0.037-0.98,0.07-1.481,0.098c-1.452,0.082-2.963,0.123-4.485,0.123
		c-8.05,0-15.019-1.28-20.717-3.805c-5.68-2.514-10.407-6.005-14.048-10.377c-3.658-4.387-6.378-9.626-8.087-15.572
		c-1.73-6.016-2.608-12.495-2.608-19.261c0-6.763,0.878-13.243,2.608-19.262c1.711-5.946,4.431-11.185,8.087-15.572
		c3.638-4.367,8.365-7.859,14.05-10.376c5.701-2.526,12.672-3.806,20.716-3.806c8.04,0,15.01,1.28,20.714,3.806
		c5.686,2.52,10.413,6.01,14.05,10.376c3.656,4.387,6.378,9.626,8.089,15.572c1.729,6.014,2.606,12.495,2.606,19.262
		C734.652,760.805,733.692,767.443,731.802,773.453z"/>
	<path d="M820.736,834.22c6.516,0,11.684-2.094,15.358-6.225c3.625-4.079,5.463-8.99,5.463-14.596
		c0-5.772-1.838-10.769-5.463-14.852c-3.674-4.128-8.84-6.222-15.358-6.222c-6.515,0-11.72,2.089-15.472,6.209
		c-3.717,4.079-5.601,9.081-5.601,14.865c0,5.796,1.889,10.759,5.613,14.751C809.026,832.178,814.228,834.22,820.736,834.22z"/>
	<path d="M910.676,797.905h62.908l13.205,35.045h36.328l-64.729-158.458h-32.517L861.142,832.95h36.328L910.676,797.905z
		 M942.13,714.113l19.644,52.308h-39.289L942.13,714.113z"/>
	<rect x="1044.478" y="674.492" width="33.515" height="158.458"/>
	<path d="M0,0v1200h1200V0H0z M1172.628,1173.325H27.372V26.675h1145.256V1173.325z"/>
	<path d="M457.243,576.362c27.176,0,49.285-22.11,49.285-49.285c0-12.967-5.042-24.774-13.259-33.582l45.849-79.412
		c3.882,0.986,7.946,1.514,12.13,1.514c7.668,0,14.931-1.761,21.409-4.899l33.961,43.692c-5.861,8.108-9.329,18.055-9.329,28.802
		c0,27.176,22.109,49.285,49.285,49.285c27.176,0,49.286-22.11,49.286-49.285c0-12.854-4.951-24.569-13.04-33.353l46.882-81.203
		c4.42,1.305,9.091,2.017,13.928,2.017c27.176,0,49.286-22.11,49.286-49.285c0-27.176-22.11-49.285-49.286-49.285
		c-27.176,0-49.285,22.11-49.285,49.285c0,12.35,4.576,23.644,12.108,32.302l-47.273,81.878c-4.026-1.066-8.25-1.641-12.607-1.641
		c-6.422,0-12.554,1.248-18.185,3.492l-35.184-45.265c4.642-7.515,7.328-16.359,7.328-25.821c0-27.176-22.109-49.285-49.285-49.285
		c-27.176,0-49.285,22.11-49.285,49.285c0,13.032,5.093,24.89,13.382,33.712l-45.797,79.323c-3.935-1.015-8.058-1.555-12.305-1.555
		c-27.176,0-49.285,22.11-49.285,49.285C407.958,554.252,430.067,576.362,457.243,576.362z M743.632,294.892
		c14.599,0,26.476,11.877,26.476,26.476c0,14.598-11.877,26.476-26.476,26.476c-14.598,0-26.475-11.877-26.475-26.476
		C717.157,306.769,729.034,294.892,743.632,294.892z M673.052,483.191c0,14.598-11.877,26.476-26.476,26.476
		c-14.598,0-26.475-11.877-26.475-26.476c0-14.598,11.877-26.476,26.475-26.476C661.175,456.716,673.052,468.593,673.052,483.191z
		 M551.249,339.836c14.598,0,26.476,11.877,26.476,26.476c0,14.598-11.877,26.476-26.476,26.476
		c-14.598,0-26.476-11.877-26.476-26.476C524.773,351.713,536.65,339.836,551.249,339.836z M457.243,500.601
		c14.598,0,26.476,11.877,26.476,26.476c0,14.598-11.877,26.476-26.476,26.476c-14.598,0-26.476-11.877-26.476-26.476
		C430.768,512.478,442.645,500.601,457.243,500.601z"/>
</g>
</svg>
